# xmcd
# 
# Track frame offsets:
#     150
#     14257
#     25836
#     38931
#     54170
#     71388
#     83872
#     102280
#     118106
#     130158
#     147699
#     154761
#     173814
#     188943
#     207314
#     219599
# 
# Disc length: 3091
# 
# Revision: 1
# Processed by: cddbd v1.5.2PL0 Copyright (c) Steve Scherf et al.
# Submitted via: BonkEnc v1.0.8
# 
DISCID=e20c1110
DTITLE=Country No. 1 (2) - Báječná ženská
DYEAR=2007
DGENRE=Country
TTITLE0=Sundej z hodin závaží
TTITLE1=Slečna sen
TTITLE2=Já jen sčítám
TTITLE3=Pole s bavlnou
TTITLE4=Tam u nebeských bran
TTITLE5=Zrádný banjo
TTITLE6=Medicinman
TTITLE7=Ztracená láska (A Place In The Sun)
TTITLE8=Zlatokop
TTITLE9=To byly časy
TTITLE10=Šlapej dál
TTITLE11=Báječná ženská
TTITLE12=Staré sedlo
TTITLE13=Zelené pláně
TTITLE14=Zlatý ranč
TTITLE15=Nám slunce může hřát
EXTD=
EXTT0=
EXTT1=
EXTT2=
EXTT3=
EXTT4=
EXTT5=
EXTT6=
EXTT7=
EXTT8=
EXTT9=
EXTT10=
EXTT11=
EXTT12=
EXTT13=
EXTT14=
EXTT15=
PLAYORDER=
